<?xml version="1.0" encoding="utf-8"?>
<!-- Generator: Adobe Illustrator 21.0.2, SVG Export Plug-In . SVG Version: 6.00 Build 0)  -->
<svg version="1.1" id="Layer_1" xmlns="http://www.w3.org/2000/svg" xmlns:xlink="http://www.w3.org/1999/xlink" x="0px" y="0px"
	 viewBox="0 0 798.2 233.3" style="enable-background:new 0 0 798.2 233.3;" xml:space="preserve">
<style type="text/css">
	.st0{fill:#0082FA;}
	.st1{fill:#00BF9D;}
	.st2{fill:#FFFFFF;}
</style>
<path class="st0" d="M327,4.8c0-2.7,2.2-4.8,4.8-4.8c0,0,341.3,0,365.5,0c24.2,0,68.1,5.5,68.1,67.3c0,61.8,0,144.3,0,144.3
	c0,2.7-2.2,4.8-4.8,4.8H399.1c-2.7,0-4.8-2.2-4.8-4.8L327,4.8z"/>
<path class="st1" d="M438.5,228.5c0,2.7-2.2,4.8-4.8,4.8c0,0-341.3,0-365.5,0c-24.2,0-68.1-5.5-68.1-67.3C0,104.3,0,21.8,0,21.8
	C0,19.1,2.2,17,4.8,17h361.5c2.7,0,4.8,2.2,4.8,4.8L438.5,228.5z"/>
<path class="st2" d="M76.2,93.9c-6,0-10.5,2-10.5,7.1c0,13.1,37.9,6,37.8,31.9c0,14.6-13,21.2-27.3,21.2c-10.5,0-21.6-3.5-28.7-9.9
	l5.5-11c6.2,5.5,16.1,8.8,23.9,8.8c6.6,0,11.7-2.3,11.7-7.6c0-14.6-37.5-6.4-37.4-32.2c0-14.5,12.6-20.6,26.3-20.6
	c9,0,18.5,2.7,24.9,7.2l-5.6,11.4C90.4,96.3,82.5,93.9,76.2,93.9z"/>
<path class="st2" d="M185.6,118.1c0,21.3-13.4,35.9-33.8,35.9c-11.4,0-20-4.6-25.2-12.9v38.3h-15.4V82.2h15.4v12.3
	c5.2-8.3,13.8-12.9,24.9-12.9C171.8,81.7,185.6,96.4,185.6,118.1z M170,117.6c0-13.3-9-23.1-21.7-23.1c-12.7,0-21.7,9.6-21.7,23.1
	c0,13.8,9,23.3,21.7,23.3C161,140.9,170,131.3,170,117.6z"/>
<path class="st2" d="M240,153.5v-8.7c-5.1,6.3-13.3,9.4-23.6,9.4c-15.4,0-25.1-9.5-25.1-22.1c0-13,9.8-21.3,26.9-21.4h21.6v-2.1
	c0-9-5.8-14.3-17-14.3c-6.8,0-13.9,2.4-21,7.2l-6.3-10.7c9.9-5.9,17.2-9,30.7-9c18.4,0,28.7,9.4,28.8,25.1l0.1,46.8H240z
	 M239.9,128.5v-6.6h-19.3c-10.1,0-14.7,2.7-14.7,9.5c0,6.4,5.2,10.6,13.8,10.6C230.6,142,239.1,136.2,239.9,128.5z"/>
<path class="st2" d="M298.8,95.2c-12.3,0-21.2,9.3-21.2,22.8c0,13.5,8.8,22.8,21.2,22.8c9,0,16.2-3,21-8.6l8.6,8.6
	c-6.4,8.4-16.8,13.3-30.3,13.3c-21.2,0-35.9-14.6-35.9-36.1c0-21.6,14.7-36.3,35.9-36.3c12.9,0,22.9,4.2,29.5,11.7l-8.4,9.9
	C314.2,98.2,307.3,95.1,298.8,95.2z"/>
<path class="st2" d="M400.2,123.8h-53.9c2.4,11,10.9,17.8,22.1,17.8c7.8,0,14.9-2.9,20.1-8.3l8.2,8.7c-7,7.6-17.2,12.1-29.5,12.1
	c-22,0-36.5-14.6-36.5-36.1c0-21.6,14.9-36.2,36.1-36.3C391.9,81.7,402.1,98,400.2,123.8z M386.8,112.5C386.3,101,378.7,94,367,94
	c-11.3,0-19.3,7.1-20.9,18.5H386.8z"/>
<path class="st2" d="M417.8,82.2l18.5,56l18-56h16l18.1,56l18.2-56h15.7l-26,71.3h-15.9l-18.1-52.8L444,153.5h-15.8l-26.3-71.3
	H417.8z"/>
<path class="st2" d="M593.6,117.7c0,21.6-15.1,36.3-37.1,36.3c-22.1,0-37.3-14.7-37.3-36.3c0-21.5,15.2-36.1,37.3-36.1
	C578.5,81.7,593.6,96.3,593.6,117.7z M534.6,118c0,13.8,9,23.2,21.9,23.2c12.7,0,21.7-9.4,21.7-23.2c0-13.7-9-23.2-21.7-23.2
	C543.6,94.8,534.6,104.3,534.6,118z"/>
<path class="st2" d="M615.8,54.1v99.5h-15.4V54.1H615.8z"/>
<path class="st2" d="M639.1,76.5v8.4h18.6v11.5h-18.6v57.1h-15.3V96.4V84.9v-7c0-16.6,12.2-24.5,24.5-24.5c5.8,0,11.5,1.6,16.1,5
	l-5.9,11.8c-2.9-2.1-6.6-3.3-9.8-3.3C643.5,66.8,639.1,69.7,639.1,76.5z"/>
<path class="st2" d="M680.1,76.5v8.4h18.6v11.5h-18.6v57.1h-15.3V77.9c0-16.6,12.2-24.5,24.5-24.5c5.8,0,11.5,1.6,16.1,5l-5.9,11.8
	c-2.9-2.1-6.6-3.3-9.8-3.3C684.6,66.8,680.1,69.7,680.1,76.5z"/>
<path class="st0" d="M793.3,205.1c0-2.3-1.6-3.6-4.3-3.6h-4.3v10.6h1.8v-3.2h2.5c0.2,0,0.3,0,0.5,0l1.9,3.2h2l-2.4-3.5
	C792.5,208,793.3,206.8,793.3,205.1z M789,207.3h-2.5v-4.2h2.5c1.6,0,2.6,0.7,2.6,2.1C791.6,206.6,790.6,207.3,789,207.3z
	 M788.6,197.3c-5.3,0-9.5,4.3-9.5,9.5c0,5.3,4.3,9.5,9.5,9.5c5.3,0,9.5-4.3,9.5-9.5C798.2,201.6,793.9,197.3,788.6,197.3z
	 M788.6,214.7c-4.3,0-7.9-3.5-7.9-7.9c0-4.3,3.5-7.9,7.9-7.9c4.3,0,7.9,3.5,7.9,7.9C796.5,211.2,792.9,214.7,788.6,214.7z"/>
</svg>
